<svg xmlns="http://www.w3.org/2000/svg" xmlns:xlink="http://www.w3.org/1999/xlink" viewBox="0 0 25 25"><defs><style>.cls-1,.cls-2{fill:none;}.cls-1{clip-rule:evenodd;}.cls-3{clip-path:url(#clip-path);}.cls-4{clip-path:url(#clip-path-2);}.cls-5{fill:#bdc6cf;}</style><clipPath id="clip-path" transform="translate(-1090 -4922)"><path class="cls-1" d="M1107.91,4939.69a7.49,7.49,0,0,0-4.07-12.56h0a7.47,7.47,0,0,0-8.83,7.38,7.47,7.47,0,0,0,2.1,5.2v0l0,0a7.49,7.49,0,0,0,10.67,0l.07-.05Zm-5,1.41v-2.9a7.75,7.75,0,0,1,2.05.39,9.11,9.11,0,0,1-1.51,2.46Zm-1.27,0a9.11,9.11,0,0,1-1.54-2.51,7.75,7.75,0,0,1,1.93-.35v2.9Zm-5.76-6.12h2.54a11.6,11.6,0,0,0,.55,3.09,8.63,8.63,0,0,0-1.46.83A6.58,6.58,0,0,1,1095.9,4934.94Zm1.63-4.8a8.65,8.65,0,0,0,1.42.81,11.61,11.61,0,0,0-.52,3.11h-2.53A6.58,6.58,0,0,1,1097.54,4930.14Zm4.52-2.23v2.9a7.74,7.74,0,0,1-2-.36,9.19,9.19,0,0,1,1.49-2.49Zm1.51.07a9.17,9.17,0,0,1,1.45,2.43,7.75,7.75,0,0,1-2.09.4v-2.9Q1103.25,4927.92,1103.56,4928Zm5.53,6.08h-2.41a11.58,11.58,0,0,0-.54-3.16,8.73,8.73,0,0,0,1.32-.76A6.58,6.58,0,0,1,1109.1,4934.06Zm-7,0h-2.73a10.74,10.74,0,0,1,.47-2.78,8.64,8.64,0,0,0,2.26.41Zm0,.88v2.37a8.62,8.62,0,0,0-2.23.41,10.73,10.73,0,0,1-.49-2.78Zm.88,0h2.86a10.73,10.73,0,0,1-.5,2.81,8.63,8.63,0,0,0-2.36-.44Zm0-.88v-2.37a8.63,8.63,0,0,0,2.38-.45,10.75,10.75,0,0,1,.48,2.82Zm2.91-4a10.25,10.25,0,0,0-.9-1.71,6.62,6.62,0,0,1,1.89,1.15A7.81,7.81,0,0,1,1105.84,4930.07Zm-6.58,0a7.74,7.74,0,0,1-1.09-.61,6.62,6.62,0,0,1,2-1.21A10.24,10.24,0,0,0,1099.26,4930.12Zm0,8.75a10.31,10.31,0,0,0,1,1.87,6.62,6.62,0,0,1-2.14-1.24A7.82,7.82,0,0,1,1099.3,4938.86Zm6.5,0a7.77,7.77,0,0,1,1,.58,6.61,6.61,0,0,1-2,1.19A10.35,10.35,0,0,0,1105.8,4938.91Zm.31-.83a11.62,11.62,0,0,0,.57-3.14h2.42a6.58,6.58,0,0,1-1.63,3.92A8.65,8.65,0,0,0,1106.11,4938.08Z"/></clipPath><clipPath id="clip-path-2" transform="translate(-1090 -4922)"><rect class="cls-2" width="1440" height="5146"/></clipPath></defs><title>Ресурс 3</title><g id="Слой_2" data-name="Слой 2"><g id="Слой_1-2" data-name="Слой 1"><g class="cls-3"><g class="cls-4"><rect class="cls-5" width="25" height="25"/></g></g></g></g></svg>